<svg xmlns="http://www.w3.org/2000/svg" width="1536" height="1536" viewBox="0 0 1536 1536">
	<defs>
		<linearGradient id="grad-red" x1="0%" y1="0%" x2="100%" y2="0%">
			<stop offset="0%" style="stop-color: #fb0000; stop-opacity: 1" />
			<stop offset="100%" style="stop-color: #8c0000; stop-opacity: 1" />
		</linearGradient>
		<linearGradient id="grad-green" x1="0%" y1="0%" x2="100%" y2="0%">
			<stop offset="0%" style="stop-color: #00fb00; stop-opacity: 1" />
			<stop offset="100%" style="stop-color: #008c00; stop-opacity: 1" />
		</linearGradient>
		<linearGradient id="grad-blue" x1="0%" y1="0%" x2="100%" y2="0%">
			<stop offset="0%" style="stop-color: #0000fb; stop-opacity: 1" />
			<stop offset="100%" style="stop-color: #00008c; stop-opacity: 1" />
		</linearGradient>
	</defs>
	<polygon stroke="#000" id="poly-ft" style="stroke-width: 41; fill: url(#grad-red); stroke-linejoin: round; stroke-linecap: round;" points="768 147.4 1198 362.4 768 577.4 338 362.4 768 147.4"/>
	<polygon stroke="#000" id="poly-fr" style="stroke-width: 41; fill: url(#grad-blue); stroke-linejoin: round; stroke-linecap: round;" points="809 651.4 1239 436.4 1239 866.4 809 1081.4 809 651.4"/>
	<polygon stroke="#000" id="poly-fl" style="stroke-width: 41; fill: url(#grad-green); stroke-linejoin: round; stroke-linecap: round;" points="727 651.4 297 436.4 297 866.4 727 1081.4 727 651.4"/>
	<path fill="#f03b4d" d="m 63.62,1153.364 51.852,-8.352 0,53.94 62.292,0 0,43.152 -62.292,0 0,64.38 q 0,16.356 5.568,26.1 5.916,9.744 23.316,9.744 8.352,0 17.052,-1.392 9.048,-1.74 16.356,-4.524 l 7.308,40.368 q -9.396,3.828 -20.88,6.612 -11.484,2.784 -28.188,2.784 -21.228,0 -35.148,-5.568 -13.92,-5.916 -22.272,-16.008 -8.352,-10.44 -11.832,-25.056 -3.132,-14.616 -3.132,-32.364 l 0,-153.816 z" />
	<path fill="#f03b4d" d="m 204.15219,1291.868 q 0,-24.36 7.308,-42.456 7.656,-18.444 19.836,-30.624 12.18,-12.18 27.84,-18.444 16.008,-6.264 32.712,-6.264 38.976,0 61.596,24.012 22.62,23.664 22.62,69.948 0,4.524 -0.348,10.092 -0.348,5.22 -0.696,9.396 l -117.624,0 q 1.74,16.008 14.964,25.404 13.224,9.396 35.496,9.396 14.268,0 27.84,-2.436 13.92,-2.784 22.62,-6.612 l 6.96,42.108 q -4.176,2.088 -11.136,4.176 -6.96,2.088 -15.66,3.48 -8.352,1.74 -18.096,2.784 -9.744,1.044 -19.488,1.044 -24.708,0 -43.152,-7.308 -18.096,-7.308 -30.276,-19.836 -11.832,-12.876 -17.748,-30.276 -5.568,-17.4 -5.568,-37.584 z m 121.8,-19.836 q -0.348,-6.612 -2.436,-12.876 -1.74,-6.264 -5.916,-11.136 -3.828,-4.872 -10.092,-8.004 -5.916,-3.132 -14.964,-3.132 -8.7,0 -14.964,3.132 -6.264,2.784 -10.44,7.656 -4.176,4.872 -6.612,11.484 -2.088,6.264 -3.132,12.876 l 68.556,0 z" />
	<path fill="#f03b4d" d="m 407.37875,1290.476 q 0,-19.836 6.264,-37.236 6.612,-17.748 18.792,-30.624 12.18,-13.224 29.58,-20.88 17.4,-7.656 39.672,-7.656 14.616,0 26.796,2.784 12.18,2.436 23.664,7.308 l -10.788,41.412 q -7.308,-2.784 -16.008,-4.872 -8.7,-2.088 -19.488,-2.088 -22.968,0 -34.452,14.268 -11.136,14.268 -11.136,37.584 0,24.708 10.44,38.28 10.788,13.572 37.236,13.572 9.396,0 20.184,-1.74 10.788,-1.74 19.836,-5.568 l 7.308,42.456 q -9.048,3.828 -22.62,6.612 -13.572,2.784 -29.928,2.784 -25.056,0 -43.152,-7.308 -18.096,-7.656 -29.928,-20.532 -11.484,-12.876 -17.052,-30.276 -5.22,-17.748 -5.22,-38.28 z" />
	<path fill="#565656" d="m 642.62675,1344.764 q 14.268,0 20.184,-2.784 5.916,-2.784 5.916,-10.788 0,-6.264 -7.656,-10.788 -7.656,-4.872 -23.316,-10.788 -12.18,-4.524 -22.272,-9.396 -9.744,-4.872 -16.704,-11.484 -6.96,-6.96 -10.788,-16.356 -3.828,-9.396 -3.828,-22.62 0,-25.752 19.14,-40.716 19.14,-14.964 52.548,-14.964 16.704,0 32.016,3.132 15.312,2.784 24.36,6.264 l -9.048,40.368 q -9.048,-3.132 -19.836,-5.568 -10.44,-2.436 -23.664,-2.436 -24.36,0 -24.36,13.572 0,3.132 1.044,5.568 1.044,2.436 4.176,4.872 3.132,2.088 8.352,4.872 5.568,2.436 13.92,5.568 17.052,6.264 28.188,12.528 11.136,5.916 17.4,13.224 6.612,6.96 9.048,15.66 2.784,8.7 2.784,20.184 0,27.144 -20.532,41.064 -20.184,13.92 -57.42,13.92 -24.36,0 -40.716,-4.176 -16.008,-4.176 -22.272,-6.96 l 8.7,-42.108 q 13.224,5.22 27.144,8.352 13.92,2.784 27.492,2.784 z" />
	<path fill="#565656" d="m 859.21325,1284.908 q 0,-25.056 -6.612,-35.496 -6.264,-10.44 -21.924,-10.44 -4.872,0 -10.092,0.696 -5.22,0.348 -10.092,1.044 l 0,141.288 -51.852,0 0,-176.784 q 6.612,-1.74 15.312,-3.48 9.048,-2.088 18.792,-3.48 10.092,-1.74 20.532,-2.436 10.44,-1.044 20.532,-1.044 19.836,0 32.016,5.22 12.528,4.872 20.532,11.832 11.136,-8.004 25.404,-12.528 14.616,-4.524 26.796,-4.524 21.924,0 35.844,6.264 14.268,5.916 22.62,17.052 8.35195,11.136 11.48395,26.448 3.132,15.312 3.132,34.104 l 0,103.356 -51.85195,0 0,-97.092 q 0,-25.056 -6.612,-35.496 -6.264,-10.44 -21.924,-10.44 -4.176,0 -11.832,2.088 -7.308,2.088 -12.18,5.22 2.436,8.004 3.132,17.052 0.696,8.7 0.696,18.792 l 0,99.876 -51.852,0 0,-97.092 z" />
	<path fill="#565656" d="m 1110.2354,1382 -51.852,0 0,-183.048 51.852,0 0,183.048 z m 4.872,-235.944 q 0,14.268 -9.396,22.62 -9.048,8.004 -21.576,8.004 -12.528,0 -21.924,-8.004 -9.048,-8.352 -9.048,-22.62 0,-14.268 9.048,-22.272 9.396,-8.352 21.924,-8.352 12.528,0 21.576,8.352 9.396,8.004 9.396,22.272 z" />
	<path fill="#565656" d="m 1157.2372,1153.364 51.852,-8.352 0,53.94 62.292,0 0,43.152 -62.292,0 0,64.38 q 0,16.356 5.568,26.1 5.916,9.744 23.316,9.744 8.352,0 17.052,-1.392 9.048,-1.74 16.356,-4.524 l 7.308,40.368 q -9.396,3.828 -20.88,6.612 -11.484,2.784 -28.188,2.784 -21.228,0 -35.148,-5.568 -13.92,-5.916 -22.272,-16.008 -8.352,-10.44 -11.832,-25.056 -3.132,-14.616 -3.132,-32.364 l 0,-153.816 z" />
	<path fill="#565656" d="m 1313.2663,1382 0,-261.696 51.852,-8.352 0,87.696 q 5.22,-1.74 13.224,-3.132 8.352,-1.74 16.008,-1.74 22.2719,0 36.888,6.264 14.964,5.916 23.664,17.052 9.048,11.136 12.5279,26.448 3.8281,15.312 3.8281,34.104 l 0,103.356 -51.852,0 0,-97.092 q 0,-25.056 -6.612,-35.496 -6.264,-10.44 -23.664,-10.44 -6.96,0 -13.224,1.392 -5.916,1.044 -10.788,2.436 l 0,139.2 -51.852,0 z" />
</svg>
