<svg xmlns="http://www.w3.org/2000/svg" version="1.1" width="1024" height="1024">
	<defs>
		<linearGradient id="grad-red" x1="0%" y1="0%" x2="100%" y2="50%">
			<stop offset="0%" style="stop-color: #fb0000; stop-opacity: 0.8" />
			<stop offset="100%" style="stop-color: #8c0000; stop-opacity: 0.8" />
		</linearGradient>
		<linearGradient id="grad-green" x1="0%" y1="0%" x2="100%" y2="50%">
			<stop offset="0%" style="stop-color: #00fb00; stop-opacity: 0.8" />
			<stop offset="100%" style="stop-color: #008c00; stop-opacity: 0.8" />
		</linearGradient>
		<linearGradient id="grad-blue" x1="0%" y1="0%" x2="100%" y2="50%">
			<stop offset="0%" style="stop-color: #0000fb; stop-opacity: 0.8" />
			<stop offset="100%" style="stop-color: #00008c; stop-opacity: 0.8" />
		</linearGradient>
	</defs>
	<path stroke="#000" stroke-width="22.5" fill="url(#grad-red)" d="M 511 377.888 L 790.552 240.544 L 511 113.248 L 231.448 240.544 Z" stroke-linecap="round" stroke-linejoin="round" />
	<path stroke="#000" stroke-width="22.5" fill="url(#grad-green)" d="M 487.896 418.4 L 203.416 275.424 L 233.368 565.536 L 490.136 725.792 Z" stroke-linecap="round" stroke-linejoin="round" />
	<path stroke="#000" stroke-width="22.5" fill="url(#grad-blue)" d="M 534.104 418.4 L 818.584 275.424 L 788.632 565.536 L 531.864 725.792 Z" stroke-linecap="round" stroke-linejoin="round" />
	<g id="text">
		<path d="m 66.640393,776.95485 32.80384,-5.28384 0,34.1248 39.408637,0 0,27.29984 -39.408637,0 0,40.7296 q 0,10.34752 3.522557,16.51201 3.74272,6.16448 14.75072,6.16448 5.28384,0 10.78784,-0.88064 5.72416,-1.1008 10.34752,-2.86208 l 4.62336,25.53856 q -5.94432,2.42176 -13.2096,4.18304 -7.26528,1.76128 -17.83296,1.76128 -13.429757,0 -22.236157,-3.52256 -8.8064,-3.74272 -14.09024,-10.12736 -5.28384,-6.6048 -7.48544,-15.85152 -1.98144,-9.24673 -1.98144,-20.47489 l 0,-97.31072 z"
			stroke="none" fill="#f03b4d" />
		<path d="m 155.5472,864.57853 q 0,-15.4112 4.62336,-26.85952 4.84352,-11.66848 12.54912,-19.37408 7.7056,-7.7056 17.6128,-11.66848 10.12736,-3.96288 20.69504,-3.96288 24.65792,0 38.96832,15.19104 14.3104,14.97088 14.3104,44.25216 0,2.86208 -0.22016,6.38464 -0.22016,3.3024 -0.44032,5.94432 l -74.41408,0 q 1.1008,10.12736 9.46688,16.07169 8.36608,5.94432 22.45632,5.94432 9.02656,0 17.6128,-1.54112 8.8064,-1.76128 14.3104,-4.18304 l 4.4032,26.63936 q -2.64192,1.32096 -7.04512,2.64192 -4.4032,1.32096 -9.9072,2.2016 -5.28384,1.1008 -11.44832,1.76128 -6.16448,0.66048 -12.32896,0.66048 -15.63136,0 -27.29984,-4.62336 -11.44832,-4.62336 -19.15392,-12.54912 -7.48544,-8.14592 -11.22816,-19.15392 -3.52256,-11.00801 -3.52256,-23.77729 z m 77.056,-12.54912 q -0.22016,-4.18304 -1.54112,-8.14592 -1.1008,-3.96288 -3.74272,-7.04512 -2.42176,-3.08224 -6.38464,-5.06368 -3.74272,-1.98144 -9.46688,-1.98144 -5.504,0 -9.46688,1.98144 -3.96288,1.76128 -6.6048,4.84352 -2.64192,3.08224 -4.18304,7.26528 -1.32096,3.96288 -1.98144,8.14592 l 43.37152,0 z"
			stroke="none" fill="#f03b4d" />
		<path d="m 284.1172,863.69789 q 0,-12.54912 3.96288,-23.55712 4.18304,-11.22816 11.88864,-19.37408 7.7056,-8.36608 18.7136,-13.2096 11.008,-4.84352 25.09824,-4.84352 9.24672,0 16.95232,1.76128 7.7056,1.54112 14.97088,4.62336 l -6.82496,26.19904 q -4.62336,-1.76128 -10.12736,-3.08224 -5.504,-1.32096 -12.32896,-1.32096 -14.53056,0 -21.79584,9.02656 -7.04512,9.02656 -7.04512,23.77728 0,15.63136 6.6048,24.21761 6.82496,8.58624 23.55712,8.58624 5.94432,0 12.76928,-1.1008 6.82496,-1.1008 12.54912,-3.52256 l 4.62336,26.85952 q -5.72416,2.42176 -14.3104,4.18304 -8.58624,1.76128 -18.93376,1.76128 -15.85152,0 -27.29984,-4.62336 -11.44832,-4.84352 -18.93376,-12.98944 -7.26528,-8.14592 -10.78784,-19.15392 -3.3024,-11.22817 -3.3024,-24.21761 z"
			stroke="none" fill="#f03b4d" />
		<path d="m 432.94538,898.04286 q 9.02656,0 12.76928,-1.76128 3.74272,-1.76128 3.74272,-6.82496 0,-3.96289 -4.84352,-6.82497 -4.84352,-3.08224 -14.75072,-6.82496 -7.70561,-2.86208 -14.09025,-5.94432 -6.16448,-3.08224 -10.56768,-7.26528 -4.4032,-4.4032 -6.82496,-10.34752 -2.42176,-5.94432 -2.42176,-14.3104 0,-16.29184 12.1088,-25.75872 12.1088,-9.46688 33.24417,-9.46688 10.56768,0 20.25472,1.98144 9.68704,1.76128 15.4112,3.96288 l -5.72416,25.53856 q -5.72416,-1.98144 -12.54912,-3.52256 -6.6048,-1.54112 -14.97088,-1.54112 -15.4112,0 -15.4112,8.58624 0,1.98144 0.66048,3.52256 0.66048,1.54112 2.64192,3.08224 1.98144,1.32096 5.28384,3.08224 3.52256,1.54112 8.8064,3.52256 10.78784,3.96288 17.83296,7.92576 7.04512,3.74272 11.008,8.36608 4.18304,4.4032 5.72416,9.9072 1.76128,5.504 1.76128,12.76929 0,17.17248 -12.98944,25.97888 -12.76928,8.8064 -36.3264,8.8064 -15.41121,0 -25.75873,-2.64192 -10.12736,-2.64192 -14.09024,-4.4032 l 5.504,-26.63936 q 8.36608,3.3024 17.17248,5.28384 8.8064,1.76128 17.39265,1.76128 z"
			stroke="none" fill="#565656" />
		<path d="m 569.96744,860.17533 q 0,-15.85152 -4.18304,-22.45632 -3.96288,-6.6048 -13.87008,-6.6048 -3.08224,0 -6.38464,0.44032 -3.3024,0.22016 -6.38464,0.66048 l 0,89.38497 -32.80384,0 0,-111.84129 q 4.18304,-1.1008 9.68704,-2.2016 5.72416,-1.32096 11.88864,-2.2016 6.38464,-1.1008 12.98944,-1.54112 6.6048,-0.66048 12.98944,-0.66048 12.54912,0 20.25472,3.3024 7.92576,3.08224 12.98944,7.48544 7.04512,-5.06368 16.07168,-7.92576 9.24672,-2.86208 16.95232,-2.86208 13.87008,0 22.67648,3.96288 9.02656,3.74272 14.3104,10.78784 5.28384,7.04512 7.26528,16.73216 1.98144,9.68704 1.98144,21.57568 l 0,65.38753 -32.80384,0 0,-61.42465 q 0,-15.85152 -4.18304,-22.45632 -3.96288,-6.6048 -13.87008,-6.6048 -2.64192,0 -7.48544,1.32096 -4.62336,1.32096 -7.7056,3.3024 1.54112,5.06368 1.98144,10.78784 0.44032,5.504 0.44032,11.88864 l 0,63.18593 -32.80384,0 0,-61.42465 z"
			stroke="none" fill="#565656" />
		<path d="m 728.77507,921.59998 -32.80384,0 0,-115.80417 32.80384,0 0,115.80417 z m 3.08224,-149.26849 q 0,9.02656 -5.94432,14.3104 -5.72416,5.06368 -13.64992,5.06368 -7.92576,0 -13.87008,-5.06368 -5.72416,-5.28384 -5.72416,-14.3104 0,-9.02656 5.72416,-14.09024 5.94432,-5.28384 13.87008,-5.28384 7.92576,0 13.64992,5.28384 5.94432,5.06368 5.94432,14.09024 z"
			stroke="none" fill="#565656" />
		<path d="m 758.51039,776.95485 32.80384,-5.28384 0,34.1248 39.40864,0 0,27.29984 -39.40864,0 0,40.7296 q 0,10.34752 3.52256,16.51201 3.74272,6.16448 14.75072,6.16448 5.28384,0 10.78784,-0.88064 5.72416,-1.1008 10.34752,-2.86208 l 4.62336,25.53856 q -5.94432,2.42176 -13.2096,4.18304 -7.26528,1.76128 -17.83296,1.76128 -13.42976,0 -22.23616,-3.52256 -8.8064,-3.74272 -14.09024,-10.12736 -5.28384,-6.6048 -7.48544,-15.85152 -1.98144,-9.24673 -1.98144,-20.47489 l 0,-97.31072 z"
			stroke="none" fill="#565656" />
		<path d="m 857.22123,921.59998 0,-165.56033 32.80384,-5.28384 0,55.48032 q 3.3024,-1.1008 8.36608,-1.98144 5.28384,-1.1008 10.12736,-1.1008 14.09025,0 23.33697,3.96288 9.46688,3.74272 14.97088,10.78784 5.72416,7.04512 7.92576,16.73216 2.42176,9.68704 2.42176,21.57568 l 0,65.38753 -32.80384,0 0,-61.42465 q 0,-15.85152 -4.18304,-22.45632 -3.96288,-6.6048 -14.97089,-6.6048 -4.4032,0 -8.36608,0.88064 -3.74272,0.66048 -6.82496,1.54112 l 0,88.06401 -32.80384,0 z"
			stroke="none" fill="#565656" />
	</g>
</svg>
