<svg version="1.1" xmlns="http://www.w3.org/2000/svg" width="1536" height="1536">
	<defs>
		<linearGradient id="grad-red" x1="0%" y1="0%" x2="100%" y2="50%">
			<stop offset="0%" style="stop-color: #fb0000; stop-opacity: 0.8" />
			<stop offset="100%" style="stop-color: #8c0000; stop-opacity: 0.8" />
		</linearGradient>
		<linearGradient id="grad-green" x1="0%" y1="0%" x2="100%" y2="50%">
			<stop offset="0%" style="stop-color: #00fb00; stop-opacity: 0.8" />
			<stop offset="100%" style="stop-color: #008c00; stop-opacity: 0.8" />
		</linearGradient>
		<linearGradient id="grad-blue" x1="0%" y1="0%" x2="100%" y2="50%">
			<stop offset="0%" style="stop-color: #0000fb; stop-opacity: 0.8" />
			<stop offset="100%" style="stop-color: #00008c; stop-opacity: 0.8" />
		</linearGradient>
	</defs>
	<path stroke="#000" stroke-width="36" fill="url(#grad-red)" d="M 768 567.5008 L 1215.2832 347.7504 L 768 144.0768 L 320.7168 347.7504 Z" stroke-linecap="round" stroke-linejoin="round" />
	<path stroke="#000" stroke-width="36" fill="url(#grad-green)" d="M 731.0336 632.32 L 275.8656 403.5584 L 323.7888 867.7376 L 734.6176 1124.1472 Z" stroke-linecap="round" stroke-linejoin="round" />
	<path stroke="#000" stroke-width="36" fill="url(#grad-blue)" d="M 804.9664 632.32 L 1260.1344 403.5584 L 1212.2112 867.7376 L 801.3824 1124.1472 Z" stroke-linecap="round" stroke-linejoin="round" />
	<g style="fill-opacity:1;stroke-width:18;stroke-opacity:1">
		<path fill="#f03b4d" d="m 53.353202,1188.6951 52.638718,-8.4787 0,54.7584 63.23712,0 0,43.8067 -63.23712,0 0,65.3568 q 0,16.6041 5.65248,26.496 6.00576,9.8918 23.66976,9.8918 8.47872,0 17.31072,-1.4131 9.18528,-1.7664 16.60416,-4.5926 l 7.41888,40.9804 q -9.53856,3.8861 -21.1968,6.7124 -11.65824,2.8262 -28.61568,2.8262 -21.55008,0 -35.681278,-5.6525 -14.1312,-6.0057 -22.60992,-16.2509 -8.47872,-10.5984 -12.01152,-25.4361 -3.17952,-14.8378 -3.17952,-32.8551 l 0,-156.1497 z" />
		<path fill="#f03b4d" d="m 196.0176,1329.3005 q 0,-24.7296 7.41888,-43.1001 7.77216,-18.7239 20.13696,-31.0887 12.3648,-12.3648 28.2624,-18.7238 16.25088,-6.3591 33.20832,-6.3591 39.56736,0 62.53056,24.3764 22.9632,24.023 22.9632,71.0092 0,4.5927 -0.35328,10.2452 -0.35328,5.2992 -0.70656,9.5385 l -119.40864,0 q 1.7664,16.2509 15.19104,25.7895 13.42464,9.5385 36.03456,9.5385 14.48448,0 28.2624,-2.4729 14.1312,-2.8263 22.9632,-6.7124 l 7.0656,42.7469 q -4.23936,2.1197 -11.30496,4.2394 -7.0656,2.1197 -15.8976,3.5328 -8.47872,1.7664 -18.37056,2.8262 -9.89184,1.0599 -19.78368,1.0599 -25.08288,0 -43.80672,-7.4189 -18.37056,-7.4189 -30.73536,-20.137 -12.01152,-13.0713 -18.01728,-30.7353 -5.65248,-17.664 -5.65248,-38.1543 z m 123.648,-20.1369 q -0.35328,-6.7124 -2.47296,-13.0714 -1.7664,-6.359 -6.00576,-11.305 -3.88608,-4.9459 -10.24512,-8.1254 -6.00576,-3.1795 -15.19104,-3.1795 -8.832,0 -15.19104,3.1795 -6.35904,2.8262 -10.5984,7.7722 -4.23936,4.9459 -6.71232,11.6582 -2.11968,6.359 -3.17952,13.0714 l 69.59616,0 z" />
  		<path fill="#f03b4d" d="m 402.32758,1327.8874 q 0,-20.137 6.35904,-37.801 6.71232,-18.0172 19.07712,-31.0886 12.3648,-13.4246 30.0288,-21.1968 17.664,-7.7722 40.27392,-7.7722 14.83776,0 27.20256,2.8263 12.3648,2.4729 24.02304,7.4189 l -10.95168,42.0403 q -7.41888,-2.8263 -16.25088,-4.9459 -8.832,-2.1197 -19.78368,-2.1197 -23.31648,0 -34.97472,14.4845 -11.30496,14.4844 -11.30496,38.1542 0,25.0829 10.5984,38.8608 10.95168,13.7779 37.80096,13.7779 9.53856,0 20.49024,-1.7664 10.95168,-1.7664 20.13696,-5.6525 l 7.41888,43.1002 q -9.18528,3.8861 -22.9632,6.7123 -13.77792,2.8263 -30.38208,2.8263 -25.43616,0 -43.80672,-7.4189 -18.37056,-7.7722 -30.38208,-20.8435 -11.65824,-13.0714 -17.31072,-30.7354 -5.2992,-18.0173 -5.2992,-38.8608 z" />
		<path fill="#565656" d="m 641.14487,1382.9991 q 14.48448,0 20.49024,-2.8263 6.00576,-2.8262 6.00576,-10.9516 0,-6.3591 -7.77216,-10.9517 -7.77216,-4.9459 -23.66976,-10.9517 -12.36479,-4.5926 -22.60991,-9.5386 -9.89184,-4.9459 -16.95744,-11.6582 -7.0656,-7.0656 -10.95168,-16.6042 -3.88608,-9.5385 -3.88608,-22.9632 0,-26.1427 19.4304,-41.3337 19.4304,-15.1911 53.34527,-15.1911 16.95744,0 32.50176,3.1796 15.54432,2.8262 24.7296,6.359 l -9.18528,40.9805 q -9.18528,-3.1795 -20.13696,-5.6525 -10.5984,-2.473 -24.02304,-2.473 -24.7296,0 -24.7296,13.778 0,3.1795 1.05984,5.6524 1.05984,2.473 4.23936,4.946 3.17952,2.1196 8.47872,4.9459 5.65248,2.4729 14.1312,5.6525 17.31072,6.359 28.61568,12.718 11.30496,6.0058 17.664,13.4247 6.71232,7.0656 9.18528,15.8976 2.82624,8.832 2.82624,20.4902 0,27.5559 -20.84352,41.6871 -20.49024,14.1312 -58.2912,14.1312 -24.72959,0 -41.33375,-4.2394 -16.25088,-4.2394 -22.60992,-7.0656 l 8.832,-42.7469 q 13.42464,5.2992 27.55584,8.4787 14.1312,2.8263 27.90911,2.8263 z" />
		<path fill="#565656" d="m 861.01751,1322.2349 q 0,-25.4361 -6.71232,-36.0345 -6.35904,-10.5984 -22.25664,-10.5984 -4.94592,0 -10.24512,0.7065 -5.2992,0.3533 -10.24512,1.0599 l 0,143.4316 -52.63872,0 0,-179.4662 q 6.71232,-1.7664 15.54432,-3.5328 9.18528,-2.1197 19.07712,-3.5328 10.24512,-1.7664 20.84352,-2.473 10.5984,-1.0598 20.84352,-1.0598 20.13696,0 32.50176,5.2992 12.71808,4.9459 20.84352,12.0115 11.30496,-8.1254 25.78944,-12.7181 14.83776,-4.5926 27.20256,-4.5926 22.25664,0 36.38784,6.359 14.48448,6.0058 22.96321,17.3108 8.4787,11.3049 11.6582,26.8492 3.1795,15.5444 3.1795,34.6215 l 0,104.9241 -52.63867,0 0,-98.5651 q 0,-25.4361 -6.71232,-36.0345 -6.35904,-10.5984 -22.25664,-10.5984 -4.23936,0 -12.01152,2.1196 -7.41888,2.1197 -12.3648,5.2992 2.47296,8.1255 3.17952,17.3108 0.70656,8.832 0.70656,19.0771 l 0,101.3913 -52.63872,0 0,-98.5651 z" />
		<path fill="#565656" d="m 1115.8483,1420.8 -52.6387,0 0,-185.8252 52.6387,0 0,185.8252 z m 4.9459,-239.5238 q 0,14.4845 -9.5386,22.9632 -9.1852,8.1254 -21.9033,8.1254 -12.7181,0 -22.2567,-8.1254 -9.1852,-8.4787 -9.1852,-22.9632 0,-14.4845 9.1852,-22.6099 9.5386,-8.4787 22.2567,-8.4787 12.7181,0 21.9033,8.4787 9.5386,8.1254 9.5386,22.6099 z" />
		<path fill="#565656" d="m 1163.5632,1188.6951 52.6387,-8.4787 0,54.7584 63.2371,0 0,43.8067 -63.2371,0 0,65.3568 q 0,16.6041 5.6525,26.496 6.0057,9.8918 23.6697,9.8918 8.4787,0 17.3107,-1.4131 9.1853,-1.7664 16.6042,-4.5926 l 7.4189,40.9804 q -9.5386,3.8861 -21.1968,6.7124 -11.6583,2.8262 -28.6157,2.8262 -21.5501,0 -35.6813,-5.6525 -14.1312,-6.0057 -22.6099,-16.2509 -8.4787,-10.5984 -12.0115,-25.4361 -3.1795,-14.8378 -3.1795,-32.8551 l 0,-156.1497 z" />
		<path fill="#565656" d="m 1321.9596,1420.8 0,-265.6665 52.6387,-8.4787 0,89.0265 q 5.2992,-1.7664 13.4246,-3.1795 8.4787,-1.7664 16.2509,-1.7664 22.6099,0 37.4477,6.359 15.191,6.0058 24.023,17.3108 9.1853,11.3049 12.7181,26.8492 3.8861,15.5444 3.8861,34.6215 l 0,104.9241 -52.6387,0 0,-98.5651 q 0,-25.4361 -6.7124,-36.0345 -6.359,-10.5984 -24.023,-10.5984 -7.0656,0 -13.4246,1.4131 -6.0058,1.0598 -10.9517,2.4729 l 0,141.312 -52.6387,0 z" />
	</g>
</svg>
