<svg xmlns:svg="http://www.w3.org/2000/svg" version="1.1" width="5878" height="1024">
	<defs>
		<linearGradient id="grad-red" x1="0%" y1="0%" x2="100%" y2="50%">
			<stop offset="0%" style="stop-color: #fb0000; stop-opacity: 0.8" />
			<stop offset="100%" style="stop-color: #8c0000; stop-opacity: 0.8" />
		</linearGradient>
		<linearGradient id="grad-green" x1="0%" y1="0%" x2="100%" y2="50%">
			<stop offset="0%" style="stop-color: #00fb00; stop-opacity: 0.8" />
			<stop offset="100%" style="stop-color: #008c00; stop-opacity: 0.8" />
		</linearGradient>
		<linearGradient id="grad-blue" x1="0%" y1="0%" x2="100%" y2="50%">
			<stop offset="0%" style="stop-color: #0000fb; stop-opacity: 0.8" />
			<stop offset="100%" style="stop-color: #00008c; stop-opacity: 0.8" />
		</linearGradient>
	</defs>
	<path stroke="#000" stroke-width="36" fill="url(#grad-red)" d="M 553 444.6208 L 1000.2832 224.8704 L 553 21.1968 L 105.7168 224.8704 Z" stroke-linecap="round" stroke-linejoin="round" />
	<path stroke="#000" stroke-width="36" fill="url(#grad-green)" d="M 516.0336 509.44 L 60.8656 280.6784 L 108.7888 744.8576 L 519.6176 1001.2672 Z" stroke-linecap="round" stroke-linejoin="round" />
	<path stroke="#000" stroke-width="36" fill="url(#grad-blue)" d="M 589.9664 509.44 L 1045.1344 280.6784 L 997.2112 744.8576 L 586.3824 1001.2672 Z" stroke-linecap="round" stroke-linejoin="round" />
	<g style="fill-opacity:1;stroke-width:18;stroke-opacity:1">
		<path fill="#f03b4d" stroke="#f03b4d" d="m 1255.2252,202.29802 167.774,-27.024 0,174.53 201.554,0 0,139.624 -201.554,0 0,208.31 q 0,52.922 18.016,84.45 19.142,31.528 75.442,31.528 27.024,0 55.174,-4.504 29.276,-5.63 52.922,-14.638 l 23.646,130.616 q -30.402,12.386 -67.56,21.394 -37.158,9.008 -91.206,9.008 -68.686,0 -113.726,-18.016 -45.04,-19.142 -72.064,-51.796 -27.024,-33.78 -38.284,-81.072 -10.134,-47.292 -10.134,-104.718 l 0,-497.692 z" />
		<path fill="#f03b4d" stroke="#f03b4d" d="m 1709.9356,650.44602 q 0,-78.82 23.646,-137.372 24.772,-59.678 64.182,-99.088 39.41,-39.41 90.08,-59.678 51.796,-20.268 105.844,-20.268 126.112,0 199.302,77.694 73.19,76.568 73.19,226.326 0,14.638 -1.126,32.654 -1.126,16.89 -2.252,30.402 l -380.588,0 q 5.63,51.796 48.418,82.198 42.788,30.402 114.852,30.402 46.166,0 90.08,-7.882 45.04,-9.008 73.19,-21.394 l 22.52,136.246 q -13.512,6.756 -36.032,13.512 -22.52,6.756 -50.67,11.26 -27.024,5.63 -58.552,9.008 -31.528,3.378 -63.056,3.378 -79.946,0 -139.624,-23.646 -58.552,-23.646 -97.962,-64.182 -38.284,-41.662 -57.426,-97.962 -18.016,-56.3 -18.016,-121.608 z m 394.1,-64.182 q -1.126,-21.394 -7.882,-41.662 -5.63,-20.268 -19.142,-36.032 -12.386,-15.764 -32.654,-25.898 -19.142,-10.134 -48.418,-10.134 -28.15,0 -48.418,10.134 -20.268,9.008 -33.78,24.772 -13.512,15.764 -21.394,37.158 -6.756,20.268 -10.134,41.662 l 221.822,0 z" />
		<path fill="#f03b4d" stroke="#f03b4d" d="m 2367.502,645.94202 q 0,-64.182 20.268,-120.482 21.394,-57.426 60.804,-99.088 39.41,-42.788 95.71,-67.56 56.3,-24.772 128.364,-24.772 47.292,0 86.702,9.008 39.41,7.882 76.568,23.646 l -34.906,133.994 q -23.646,-9.008 -51.796,-15.764 -28.15,-6.756 -63.056,-6.756 -74.316,0 -111.474,46.166 -36.032,46.166 -36.032,121.608 0,79.946 33.78,123.86 34.906,43.914 120.482,43.914 30.402,0 65.308,-5.63 34.906,-5.63 64.182,-18.016 l 23.646,137.372 q -29.276,12.386 -73.19,21.394 -43.914,9.008 -96.836,9.008 -81.072,0 -139.624,-23.646 -58.552,-24.772 -96.836,-66.434 -37.158,-41.662 -55.174,-97.962 -16.89,-57.426 -16.89,-123.86 z" />
		<path fill="#565656" stroke="#565656" d="m 3128.678,821.59802 q 46.166,0 65.308,-9.008 19.142,-9.008 19.142,-34.906 0,-20.268 -24.772,-34.906 -24.772,-15.764 -75.442,-34.906 -39.41,-14.638 -72.064,-30.402 -31.528,-15.764 -54.048,-37.158 -22.52,-22.52 -34.906,-52.922 -12.386,-30.402 -12.386,-73.19 0,-83.324 61.93,-131.742 61.93,-48.418 170.026,-48.418 54.048,0 103.592,10.134 49.544,9.008 78.82,20.268 l -29.276,130.616 q -29.276,-10.134 -64.182,-18.016 -33.78,-7.882 -76.568,-7.882 -78.82,0 -78.82,43.914 0,10.134 3.378,18.016 3.378,7.882 13.512,15.764 10.134,6.756 27.024,15.764 18.016,7.882 45.04,18.016 55.174,20.268 91.206,40.536 36.032,19.142 56.3,42.788 21.394,22.52 29.276,50.67 9.008,28.15 9.008,65.308 0,87.828 -66.434,132.868 -65.308,45.04 -185.79,45.04 -78.82,0 -131.742,-13.512 -51.796,-13.512 -72.064,-22.52 l 28.15,-136.246 q 42.788,16.89 87.828,27.024 45.04,9.008 88.954,9.008 z" />
		<path fill="#565656" stroke="#565656" d="m 3829.4723,627.92602 q 0,-81.072 -21.394,-114.852 -20.268,-33.78 -70.938,-33.78 -15.764,0 -32.654,2.252 -16.89,1.126 -32.654,3.378 l 0,457.156 -167.774,0 0,-572.008 q 21.394,-5.63 49.544,-11.26 29.276,-6.756 60.804,-11.26 32.654,-5.63 66.434,-7.882 33.78,-3.378 66.434,-3.378 64.182,0 103.592,16.89 40.536,15.764 66.434,38.284 36.032,-25.898 82.198,-40.536 47.292,-14.638 86.702,-14.638 70.938,0 115.978,20.268 46.166,19.142 73.19,55.174 27.024,36.032 37.158,85.576 10.134,49.544 10.134,110.348 l 0,334.422 -167.774,0 0,-314.154 q 0,-81.072 -21.394,-114.852 -20.268,-33.78 -70.938,-33.78 -13.512,0 -38.284,6.756 -23.646,6.756 -39.41,16.89 7.882,25.898 10.134,55.174 2.252,28.15 2.252,60.804 l 0,323.162 -167.774,0 0,-314.154 z" />
		<path fill="#565656" stroke="#565656" d="m 4641.6877,942.08002 -167.774,0 0,-592.276 167.774,0 0,592.276 z m 15.764,-763.428 q 0,46.166 -30.402,73.19 -29.276,25.898 -69.812,25.898 -40.536,0 -70.938,-25.898 -29.276,-27.024 -29.276,-73.19 0,-46.166 29.276,-72.064 30.402,-27.024003 70.938,-27.024003 40.536,0 69.812,27.024003 30.402,25.898 30.402,72.064 z" />
		<path fill="#565656" stroke="#565656" d="m 4793.7681,202.29802 167.774,-27.024 0,174.53 201.554,0 0,139.624 -201.554,0 0,208.31 q 0,52.922 18.016,84.45 19.142,31.528 75.442,31.528 27.024,0 55.174,-4.504 29.276,-5.63 52.922,-14.638 l 23.646,130.616 q -30.402,12.386 -67.56,21.394 -37.158,9.008 -91.206,9.008 -68.686,0 -113.726,-18.016 -45.04,-19.142 -72.064,-51.796 -27.024,-33.78 -38.284,-81.072 -10.134,-47.292 -10.134,-104.718 l 0,-497.692 z" />
		<path fill="#565656" stroke="#565656" d="m 5298.6208,942.08002 0,-846.752003 167.774,-27.024 0,283.752003 q 16.89,-5.63 42.788,-10.134 27.024,-5.63 51.796,-5.63 72.064,0 119.356,20.268 48.418,19.142 76.568,55.174 29.276,36.032 40.536,85.576 12.386,49.544 12.386,110.348 l 0,334.422 -167.774,0 0,-314.154 q 0,-81.072 -21.394,-114.852 -20.268,-33.78 -76.568,-33.78 -22.52,0 -42.788,4.504 -19.142,3.378 -34.906,7.882 l 0,450.4 -167.774,0 z" />
	</g>
</svg>
